<svg version="1.1" id="Layer_1" xmlns="http://www.w3.org/2000/svg" xmlns:xlink="http://www.w3.org/1999/xlink" x="0px" y="0px"
	 width="100%" viewBox="0 0 1536 360" enable-background="new 0 0 1536 360" xml:space="preserve">
<path fill="none" opacity="1.000000" stroke="none"
	d="
M1049.000000,361.000000
	C699.379333,361.000000 350.258667,361.000000 1.068992,361.000000
	C1.068992,241.061829 1.068992,121.123619 1.068992,1.092702
	C513.000000,1.092702 1025.000000,1.092702 1536.967529,1.092702
	C1536.967529,121.074799 1536.967529,241.037399 1536.967529,361.000000
	C1374.456787,361.000000 1211.978394,361.000000 1049.000000,361.000000
M626.151794,249.314468
	C627.784363,253.139252 629.474792,256.940521 631.040405,260.792542
	C642.630920,289.310059 654.209900,317.832275 665.747986,346.371002
	C666.802612,348.979675 667.796387,350.920685 671.309326,350.889374
	C690.140625,350.721283 708.974487,350.768158 727.806946,350.853851
	C730.754578,350.867279 732.167664,349.782043 733.275513,346.990143
	C739.415283,331.516693 745.799377,316.140259 752.100464,300.730865
	C766.275452,266.065338 780.331970,231.350754 794.655090,196.746506
	C814.389221,149.069168 834.319397,101.472992 854.187500,53.851181
	C855.367676,51.022465 856.740601,48.274204 858.244995,45.008381
	C859.495422,46.352676 860.373291,47.093864 861.005615,48.005424
	C894.319214,96.024055 927.617126,144.053558 960.896606,192.095825
	C963.346436,195.632324 965.094788,199.144699 965.071228,203.914474
	C964.838562,251.079437 964.992798,298.246246 964.833069,345.411804
	C964.818176,349.824554 965.973816,351.028412 970.402222,350.984924
	C993.732910,350.755890 1017.068665,350.717499 1040.398315,350.987213
	C1045.377930,351.044769 1046.391602,349.467255 1046.373535,344.799194
	C1046.189209,297.133850 1046.203125,249.467575 1046.308594,201.801880
	C1046.313599,199.507065 1047.201782,196.883911 1048.503052,194.975739
	C1057.038940,182.458649 1065.824585,170.112259 1074.486206,157.680511
	C1101.234131,119.290039 1127.967773,80.889740 1154.692871,42.483486
	C1158.140381,37.529140 1161.505005,32.517044 1165.166382,27.153131
	C1163.685547,26.940701 1163.036499,26.765789 1162.387695,26.766289
	C1133.054810,26.788877 1103.721191,26.744995 1074.390869,27.035128
	C1072.288940,27.055920 1069.533691,29.062380 1068.228638,30.941721
	C1056.456421,47.894180 1044.966553,65.042206 1033.341309,82.097137
	C1024.460327,95.125847 1015.503296,108.102722 1006.123169,121.768456
	C1003.789734,118.394928 1001.807007,115.594307 999.891296,112.748596
	C981.386230,85.260681 962.864746,57.783730 944.442749,30.240187
	C942.780090,27.754154 940.978699,26.799236 937.954834,26.805429
	C886.122559,26.911629 834.289795,26.953926 782.457825,26.807724
	C778.086975,26.795397 775.969543,28.189939 774.402893,32.207134
	C767.024780,51.125828 759.343994,69.926247 751.814941,88.786324
	C735.891602,128.673996 720.005798,168.576660 704.071533,208.459991
	C702.561279,212.240097 700.817688,215.926987 698.832031,220.456482
	C688.094177,193.257584 677.705444,167.002762 667.362488,140.729889
	C652.851562,103.869713 638.335083,67.011551 623.955505,30.100098
	C622.764282,27.042206 620.881714,26.814878 618.193481,26.820295
	C592.193970,26.872675 566.194275,26.831289 540.194641,26.842382
	C538.795715,26.842979 537.396912,27.073212 535.383362,27.250744
	C536.165405,29.359228 536.673157,30.894560 537.295959,32.381721
	C543.853821,48.040268 550.509949,63.658104 556.983032,79.351517
	C567.897278,105.812202 578.756653,132.295883 589.532043,158.813400
	C601.687622,188.727203 613.724792,218.689087 626.151794,249.314468
M117.506432,322.988678
	C109.479370,331.896637 101.452309,340.804596 92.631233,350.593719
	C95.111458,350.832611 95.899521,350.974854 96.687592,350.974854
	C129.515732,350.975067 162.344437,351.040741 195.170883,350.799744
	C197.734634,350.780945 200.911942,349.212524 202.724930,347.326752
	C209.294403,340.493530 215.331665,333.152649 221.698669,326.120056
	C251.539322,293.160065 281.420685,260.236877 311.302032,227.313751
	C312.197021,226.327621 313.253052,225.487640 315.106384,223.771927
	C315.106384,266.848175 315.106384,308.601959 315.106384,350.617065
	C316.799500,350.717834 318.095856,350.861176 319.392334,350.862335
	C343.721802,350.883759 368.052277,350.775757 392.379791,350.998077
	C396.867523,351.039093 397.941620,349.674194 397.936401,345.326477
	C397.811707,241.509064 397.829926,137.691452 397.822113,33.873886
	C397.821960,31.752855 397.822113,29.631823 397.822113,27.190290
	C395.816162,27.053427 394.369598,26.868727 392.923004,26.868500
	C345.763611,26.861048 298.602722,26.658653 251.445602,26.989153
	C233.872437,27.112312 216.685196,30.246235 200.445450,37.491646
	C177.447433,47.752270 160.000916,63.499111 150.784607,87.437294
	C145.411560,101.393143 144.757828,115.950134 145.100967,130.685974
	C145.813812,161.298431 158.412933,185.705002 183.608475,203.032547
	C192.236572,208.966293 202.084000,213.127029 211.594482,218.215576
	C211.551559,218.279068 211.032608,219.273697 210.307892,220.084366
	C201.541382,229.890869 192.764038,239.687836 183.951721,249.453186
	C161.977264,273.804077 139.983307,298.137329 117.506432,322.988678
M1172.320435,140.500824
	C1172.433594,166.990326 1172.661987,193.479965 1172.633789,219.969315
	C1172.589355,261.789185 1172.412720,303.609100 1172.163086,345.428223
	C1172.139648,349.353668 1172.979126,351.013794 1177.372925,350.974304
	C1200.533081,350.766083 1223.697144,350.753113 1246.857178,350.963074
	C1251.569702,351.005798 1253.078247,349.773193 1253.053101,344.863922
	C1252.866089,308.372192 1252.976807,271.878906 1253.008423,235.386108
	C1253.009766,233.824554 1253.153320,232.263123 1253.289795,229.504593
	C1258.914062,236.290863 1263.803711,242.120041 1268.617798,248.010941
	C1295.786011,281.256287 1322.905762,314.541382 1350.183350,347.696686
	C1351.528320,349.331329 1354.191650,350.781311 1356.250366,350.793945
	C1387.576050,350.986053 1418.903198,350.927734 1450.230103,350.908813
	C1451.788696,350.907867 1453.347290,350.731750 1456.069702,350.566559
	C1417.149658,305.474548 1379.039429,261.320709 1340.587891,216.771469
	C1343.171631,215.707672 1345.127319,214.923325 1347.066772,214.100800
	C1374.668701,202.395187 1394.375610,183.366943 1402.039062,153.668060
	C1405.985474,138.373871 1406.069092,122.707085 1404.251953,107.073349
	C1401.059570,79.607109 1387.160767,58.997715 1363.896362,44.362862
	C1343.435059,31.491335 1320.543457,27.413986 1297.075439,27.043032
	C1257.260010,26.413677 1217.427490,26.871014 1177.602173,26.871603
	C1176.130737,26.871624 1174.659302,26.871605 1172.321411,26.871605
	C1172.321411,64.689156 1172.321411,102.095352 1172.320435,140.500824
M517.761536,76.500427
	C517.761536,60.085304 517.761536,43.670181 517.761536,27.148758
	C490.151154,27.148758 463.409698,27.148758 436.380096,27.148758
	C436.380096,135.131165 436.380096,242.781143 436.380096,350.510315
	C437.406097,350.679596 438.046326,350.877655 438.686523,350.877533
	C463.674774,350.873566 488.663422,350.771667 513.650879,350.905304
	C518.153870,350.929382 517.777954,348.306793 517.777466,345.375854
	C517.762146,256.084076 517.765808,166.792267 517.761536,76.500427
z"/>
<path fill="currentColor" opacity="1.000000" stroke="none"
	d="
M625.982666,248.972260
	C613.724792,218.689087 601.687622,188.727203 589.532043,158.813400
	C578.756653,132.295883 567.897278,105.812202 556.983032,79.351517
	C550.509949,63.658104 543.853821,48.040268 537.295959,32.381721
	C536.673157,30.894560 536.165405,29.359228 535.383362,27.250744
	C537.396912,27.073212 538.795715,26.842979 540.194641,26.842382
	C566.194275,26.831289 592.193970,26.872675 618.193481,26.820295
	C620.881714,26.814878 622.764282,27.042206 623.955505,30.100098
	C638.335083,67.011551 652.851562,103.869713 667.362488,140.729889
	C677.705444,167.002762 688.094177,193.257584 698.832031,220.456482
	C700.817688,215.926987 702.561279,212.240097 704.071533,208.459991
	C720.005798,168.576660 735.891602,128.673996 751.814941,88.786324
	C759.343994,69.926247 767.024780,51.125828 774.402893,32.207134
	C775.969543,28.189939 778.086975,26.795397 782.457825,26.807724
	C834.289795,26.953926 886.122559,26.911629 937.954834,26.805429
	C940.978699,26.799236 942.780090,27.754154 944.442749,30.240187
	C962.864746,57.783730 981.386230,85.260681 999.891296,112.748596
	C1001.807007,115.594307 1003.789734,118.394928 1006.123169,121.768456
	C1015.503296,108.102722 1024.460327,95.125847 1033.341309,82.097137
	C1044.966553,65.042206 1056.456421,47.894180 1068.228638,30.941721
	C1069.533691,29.062380 1072.288940,27.055920 1074.390869,27.035128
	C1103.721191,26.744995 1133.054810,26.788877 1162.387695,26.766289
	C1163.036499,26.765789 1163.685547,26.940701 1165.166382,27.153131
	C1161.505005,32.517044 1158.140381,37.529140 1154.692871,42.483486
	C1127.967773,80.889740 1101.234131,119.290039 1074.486206,157.680511
	C1065.824585,170.112259 1057.038940,182.458649 1048.503052,194.975739
	C1047.201782,196.883911 1046.313599,199.507065 1046.308594,201.801880
	C1046.203125,249.467575 1046.189209,297.133850 1046.373535,344.799194
	C1046.391602,349.467255 1045.377930,351.044769 1040.398315,350.987213
	C1017.068665,350.717499 993.732910,350.755890 970.402222,350.984924
	C965.973816,351.028412 964.818176,349.824554 964.833069,345.411804
	C964.992798,298.246246 964.838562,251.079437 965.071228,203.914474
	C965.094788,199.144699 963.346436,195.632324 960.896606,192.095825
	C927.617126,144.053558 894.319214,96.024055 861.005615,48.005424
	C860.373291,47.093864 859.495422,46.352676 858.244995,45.008381
	C856.740601,48.274204 855.367676,51.022465 854.187500,53.851181
	C834.319397,101.472992 814.389221,149.069168 794.655090,196.746506
	C780.331970,231.350754 766.275452,266.065338 752.100464,300.730865
	C745.799377,316.140259 739.415283,331.516693 733.275513,346.990143
	C732.167664,349.782043 730.754578,350.867279 727.806946,350.853851
	C708.974487,350.768158 690.140625,350.721283 671.309326,350.889374
	C667.796387,350.920685 666.802612,348.979675 665.747986,346.371002
	C654.209900,317.832275 642.630920,289.310059 631.040405,260.792542
	C629.474792,256.940521 627.784363,253.139252 625.982666,248.972260
z"/>
<path fill="currentColor  " opacity="1.000000" stroke="none"
	d="
M117.751816,322.733185
	C139.983307,298.137329 161.977264,273.804077 183.951721,249.453186
	C192.764038,239.687836 201.541382,229.890869 210.307892,220.084366
	C211.032608,219.273697 211.551559,218.279068 211.594482,218.215576
	C202.084000,213.127029 192.236572,208.966293 183.608475,203.032547
	C158.412933,185.705002 145.813812,161.298431 145.100967,130.685974
	C144.757828,115.950134 145.411560,101.393143 150.784607,87.437294
	C160.000916,63.499111 177.447433,47.752270 200.445450,37.491646
	C216.685196,30.246235 233.872437,27.112312 251.445602,26.989153
	C298.602722,26.658653 345.763611,26.861048 392.923004,26.868500
	C394.369598,26.868727 395.816162,27.053427 397.822113,27.190290
	C397.822113,29.631823 397.821960,31.752855 397.822113,33.873886
	C397.829926,137.691452 397.811707,241.509064 397.936401,345.326477
	C397.941620,349.674194 396.867523,351.039093 392.379791,350.998077
	C368.052277,350.775757 343.721802,350.883759 319.392334,350.862335
	C318.095856,350.861176 316.799500,350.717834 315.106384,350.617065
	C315.106384,308.601959 315.106384,266.848175 315.106384,223.771927
	C313.253052,225.487640 312.197021,226.327621 311.302032,227.313751
	C281.420685,260.236877 251.539322,293.160065 221.698669,326.120056
	C215.331665,333.152649 209.294403,340.493530 202.724930,347.326752
	C200.911942,349.212524 197.734634,350.780945 195.170883,350.799744
	C162.344437,351.040741 129.515732,350.975067 96.687592,350.974854
	C95.899521,350.974854 95.111458,350.832611 92.631233,350.593719
	C101.452309,340.804596 109.479370,331.896637 117.751816,322.733185
M244.205841,159.348846
	C249.972092,161.830307 255.525330,165.268661 261.545624,166.608765
	C277.777161,170.221802 294.336212,168.655533 310.789703,168.234955
	C312.041992,168.202927 313.284454,167.788162 314.342102,167.587265
	C314.567596,166.880554 314.753326,166.569519 314.753876,166.258148
	C314.796631,141.436172 314.775452,116.613907 314.909393,91.792473
	C314.928741,88.201492 312.887726,88.277390 310.398773,88.279953
	C298.237000,88.292503 286.060699,87.875092 273.917664,88.341583
	C263.558472,88.739540 253.605865,91.058792 244.527222,96.730484
	C225.487106,108.625443 226.802582,147.354324 244.205841,159.348846
z"/>
<path fill="currentColor" opacity="1.000000" stroke="none"
	d="
M1172.320923,140.001190
	C1172.321411,102.095352 1172.321411,64.689156 1172.321411,26.871605
	C1174.659302,26.871605 1176.130737,26.871624 1177.602173,26.871603
	C1217.427490,26.871014 1257.260010,26.413677 1297.075439,27.043032
	C1320.543457,27.413986 1343.435059,31.491335 1363.896362,44.362862
	C1387.160767,58.997715 1401.059570,79.607109 1404.251953,107.073349
	C1406.069092,122.707085 1405.985474,138.373871 1402.039062,153.668060
	C1394.375610,183.366943 1374.668701,202.395187 1347.066772,214.100800
	C1345.127319,214.923325 1343.171631,215.707672 1340.587891,216.771469
	C1379.039429,261.320709 1417.149658,305.474548 1456.069702,350.566559
	C1453.347290,350.731750 1451.788696,350.907867 1450.230103,350.908813
	C1418.903198,350.927734 1387.576050,350.986053 1356.250366,350.793945
	C1354.191650,350.781311 1351.528320,349.331329 1350.183350,347.696686
	C1322.905762,314.541382 1295.786011,281.256287 1268.617798,248.010941
	C1263.803711,242.120041 1258.914062,236.290863 1253.289795,229.504593
	C1253.153320,232.263123 1253.009766,233.824554 1253.008423,235.386108
	C1252.976807,271.878906 1252.866089,308.372192 1253.053101,344.863922
	C1253.078247,349.773193 1251.569702,351.005798 1246.857178,350.963074
	C1223.697144,350.753113 1200.533081,350.766083 1177.372925,350.974304
	C1172.979126,351.013794 1172.139648,349.353668 1172.163086,345.428223
	C1172.412720,303.609100 1172.589355,261.789185 1172.633789,219.969315
	C1172.661987,193.479965 1172.433594,166.990326 1172.320923,140.001190
M1320.271851,145.716324
	C1321.495239,138.252319 1323.600220,130.807098 1323.759766,123.320427
	C1324.098511,107.421562 1315.011230,95.506393 1299.697266,91.271706
	C1293.364746,89.520607 1286.652954,88.751930 1280.067505,88.399979
	C1271.174072,87.924675 1262.236206,88.281906 1253.192261,88.281906
	C1253.192261,115.293579 1253.192261,141.678909 1253.192261,169.397949
	C1267.128906,168.491379 1280.744385,168.273483 1294.162720,166.534683
	C1306.245850,164.968918 1315.380615,158.257614 1320.271851,145.716324
z"/>
<path fill="currentColor" opacity="1.000000" stroke="none"
	d="
M517.764038,77.000450
	C517.765808,166.792267 517.762146,256.084076 517.777466,345.375854
	C517.777954,348.306793 518.153870,350.929382 513.650879,350.905304
	C488.663422,350.771667 463.674774,350.873566 438.686523,350.877533
	C438.046326,350.877655 437.406097,350.679596 436.380096,350.510315
	C436.380096,242.781143 436.380096,135.131165 436.380096,27.148758
	C463.409698,27.148758 490.151154,27.148758 517.761536,27.148758
	C517.761536,43.670181 517.761536,60.085304 517.764038,77.000450
z"/>
<path fill="none" opacity="1.000000" stroke="none"
	d="
M243.929962,159.120178
	C226.802582,147.354324 225.487106,108.625443 244.527222,96.730484
	C253.605865,91.058792 263.558472,88.739540 273.917664,88.341583
	C286.060699,87.875092 298.237000,88.292503 310.398773,88.279953
	C312.887726,88.277390 314.928741,88.201492 314.909393,91.792473
	C314.775452,116.613907 314.796631,141.436172 314.753876,166.258148
	C314.753326,166.569519 314.567596,166.880554 314.342102,167.587265
	C313.284454,167.788162 312.041992,168.202927 310.789703,168.234955
	C294.336212,168.655533 277.777161,170.221802 261.545624,166.608765
	C255.525330,165.268661 249.972092,161.830307 243.929962,159.120178
z"/>
<path fill="none" opacity="1.000000" stroke="none"
	d="
M1320.146606,146.077759
	C1315.380615,158.257614 1306.245850,164.968918 1294.162720,166.534683
	C1280.744385,168.273483 1267.128906,168.491379 1253.192261,169.397949
	C1253.192261,141.678909 1253.192261,115.293579 1253.192261,88.281906
	C1262.236206,88.281906 1271.174072,87.924675 1280.067505,88.399979
	C1286.652954,88.751930 1293.364746,89.520607 1299.697266,91.271706
	C1315.011230,95.506393 1324.098511,107.421562 1323.759766,123.320427
	C1323.600220,130.807098 1321.495239,138.252319 1320.146606,146.077759
z"/>
</svg>