<svg width="2358" height="2358" viewBox="0 0 2358 2358" fill="none" xmlns="http://www.w3.org/2000/svg">
<path d="M820.471 293.93C870.58 261.708 939.205 278.077 977.336 321.005C977.827 323.742 976.107 322.526 974.399 322.713C940.421 326.293 916.735 331.886 886.675 348.477C884.675 349.576 880.686 350.278 881.434 353.156C882.475 353.964 903.225 347.178 906.851 346.417C1006.24 325.38 1124.46 335.688 1225.86 341.515C1342.32 348.207 1460.23 356 1575.75 371.772C1625.72 378.593 1684.49 385.906 1731.95 402.731C1737.27 404.614 1748.23 410.898 1752.24 411.682C1753.98 412.021 1754.31 411.634 1754 409.926C1724.87 391.217 1692.38 375.948 1657.76 370.473L1655.9 367.969C1656.33 363.253 1676.16 350.056 1680.9 347.318C1709.85 330.634 1748.71 325.076 1780.88 335.08C1820.49 347.401 1848.65 390.574 1837.91 431.829C1836.93 435.608 1832.05 449.824 1827.43 448.923C1817.95 445.53 1806.48 436.03 1797.59 433.023C1795.87 432.438 1794.5 432.099 1794.96 434.485C1840.87 468.311 1881.35 513.953 1900.98 568.301C1928.15 643.533 1916.64 745.512 1905.94 823.974C1904.79 832.386 1903.07 840.951 1901.41 849.27C1929.24 842.378 1941.32 869.453 1938.84 893.157C1937.42 906.683 1927.3 923.707 1915.72 930.867C1908.98 935.021 1901.61 938.414 1894.88 932.354L1901.4 904.284L1890.39 918.418C1882.92 934.833 1880.59 952.922 1875.54 970.25C1862.04 1016.57 1846.77 1062.51 1828.86 1107.26C1828.53 1109.87 1829.25 1108.66 1830.62 1109C1842.03 1111.82 1847.07 1110.85 1857.32 1118.59C1904.33 1154.03 1854.68 1232.71 1797.06 1213.97C1786.96 1210.68 1781.53 1204.42 1773.55 1198.14C1771.33 1199.52 1769.03 1200.87 1766.53 1201.7C1717.98 1217.82 1672.04 1230.24 1621.12 1237.6C1587.25 1242.49 1559.18 1242.59 1526.31 1255.08C1517.56 1258.4 1505.98 1263.55 1499.03 1269.32C1503.28 1270.08 1507.25 1268.28 1511.27 1268.12C1526.6 1267.48 1552.65 1268.51 1566.85 1273.45C1579.83 1277.97 1586.24 1288.68 1593.33 1299.61L1615.99 1343.04C1587.62 1340.15 1558.75 1345.02 1533.48 1358.21C1514.17 1368.28 1498.27 1383.7 1488.45 1403.25C1487.93 1404.28 1482.49 1417.5 1487.31 1413.24C1493.71 1401.7 1503.09 1390.85 1513.86 1383.05C1539.75 1364.3 1576.31 1354.04 1608.27 1357.21C1614.97 1357.88 1625.45 1359.8 1628.91 1365.81C1641.97 1388.45 1652.75 1412.41 1666.27 1434.91C1728.26 1537.99 1815.93 1623.46 1865.17 1734.38C1926.52 1872.58 1895.76 2010.65 1744.83 2063.37C1652.22 2095.71 1501.11 2086.65 1430.58 2011.15C1356.34 1931.68 1417.62 1821.63 1521.88 1829.74C1528.36 1830.24 1554.17 1835.89 1556.93 1841.47C1561.85 1851.38 1547.29 1850.08 1542.98 1850.93C1496.74 1860.05 1449.8 1900.47 1485.19 1948.33C1535.52 2016.4 1679.34 2001.12 1727.12 1935.66C1728.84 1933.31 1739.29 1916.01 1739.75 1914.31C1740.88 1910.12 1736.08 1904.36 1735.4 1899.3C1733.59 1885.56 1737.24 1871.13 1744.66 1859.6L1742.97 1856.6C1724.56 1849.87 1719.64 1828.5 1721.25 1810.46C1721.66 1805.82 1724.9 1801.6 1723.45 1796.58L1722.49 1795.2C1698.16 1789.49 1686.57 1757.85 1690.31 1734.93C1684.3 1732.06 1678.82 1731.21 1672.72 1727.98C1652.96 1717.53 1640.26 1694.53 1637.01 1673.02C1610.38 1672.64 1590.54 1650.6 1585.88 1625.3C1585.25 1621.84 1586.5 1616.25 1584.52 1613.79C1582.06 1611.19 1578.32 1612.66 1575.04 1611.58C1551.19 1603.75 1536.81 1575.5 1537.47 1551.46C1507.95 1543.4 1495.9 1514.14 1498.88 1485.34C1491.58 1481.47 1481.99 1472.26 1478.68 1464.6C1476.77 1460.2 1476.78 1454.71 1475.25 1450.47C1470.77 1438.05 1460.42 1407.79 1453.87 1398.15C1448.81 1390.7 1443.79 1394.76 1437.6 1391.03C1425.88 1383.95 1414.17 1358.69 1412.48 1345.36C1409.74 1345.21 1410.41 1344.97 1410.14 1347.1C1409.74 1350.25 1409.91 1355.53 1410.16 1358.8C1419.39 1487.19 1462.81 1595.94 1539.49 1697.44C1572.07 1740.56 1654.04 1822.62 1629.3 1881.09C1627.04 1886.43 1620.67 1896.19 1614.17 1891.84C1612.81 1887.09 1614.27 1882.01 1613.59 1877.22C1609.2 1846.23 1537.97 1808.92 1512.93 1793.05C1394.07 1717.7 1322.89 1618.71 1286.47 1482.53C1280.98 1462.01 1278.43 1440.15 1271.73 1420.05C1267.54 1407.5 1258.54 1396.03 1258.09 1382.8C1253.07 1384.45 1250.79 1389.35 1245.51 1391.84C1236.36 1396.15 1232.99 1395.07 1225.45 1389.14C1221.47 1386.01 1216.4 1381.01 1215.97 1375.78C1214.39 1374.04 1213.83 1375.87 1213.64 1377.51C1201.49 1480.85 1165.09 1578.72 1094.37 1656.02C1044.15 1710.93 980.166 1746.44 908.605 1766.22C877.246 1774.87 839.174 1778.29 809.371 1789.85C807.687 1790.51 805.978 1788.72 806.598 1792.3H845.783C849.117 1792.3 869.105 1798.15 873.457 1799.71C968.551 1833.91 964.118 1965.83 859.702 1981.72C847.994 1983.5 808.938 1983.89 802.06 1972.94C794.189 1960.41 820.401 1956.08 827.501 1953.02C868.065 1935.59 893.797 1903.61 876.042 1857.97C858.286 1812.33 800.738 1804.59 759.496 1813.63C752.127 1815.24 739.062 1822 732.313 1821.64C720.184 1820.99 731.833 1800.01 734.828 1794.79C763.122 1745.33 858.123 1707.24 905.928 1672.26C1007.12 1598.22 1061.29 1490.7 1077.83 1366.85C1079.16 1356.99 1080.59 1345.76 1079.73 1335.99C1074.34 1343.36 1072.64 1360.12 1061.04 1359.43C1057.45 1359.22 1054.03 1356.53 1050.54 1357.01C1044.92 1357.79 1035.8 1380.45 1032.78 1386.13C1025.18 1400.49 1023.46 1400.4 1019.21 1417.02C1015.44 1431.75 1009.67 1445.21 997.875 1455.35C994.6 1458.17 984.308 1463.39 983.149 1465.19C981.102 1468.39 980.693 1477.13 979.383 1481.32C974.4 1497.22 962.06 1515.39 946.234 1521.87C940.585 1524.19 936.701 1523.96 931.157 1525.51C927.192 1540.14 925.227 1552.19 913.659 1563C901.307 1574.54 886.3 1578.07 869.703 1578.7C862.369 1613.63 828.565 1630.44 794.832 1629C790.972 1646.99 778.433 1663.36 760.877 1669.91C748.42 1674.56 735.483 1673.35 722.441 1673C719.763 1696.93 699.422 1716.3 676.801 1722.7C670.882 1724.38 656.519 1723.84 654.542 1725.01C651.138 1727.02 652.857 1733.68 652.143 1736.65C646.155 1761.86 623.522 1776.98 598.912 1780.51C598.292 1795.1 599.789 1806.4 590.186 1818.59C582.841 1827.92 571.448 1831.8 560.302 1834.32C558.641 1836.59 562.161 1848.8 562.137 1852.54C562.091 1858.96 557.926 1870.82 554.242 1876.23C552.23 1879.19 545.809 1883.75 545.692 1884.33C544.71 1888.93 549.774 1890.32 551.306 1893.81C553.19 1898.08 554.208 1907.26 553.646 1911.92C553.015 1917.15 549.716 1921.06 549.377 1926.07C554.921 1929.52 557.552 1934.95 562.126 1939.15C598.502 1972.56 673.725 1988.43 710.113 1947.92C730.734 1924.97 727.189 1892.92 701.375 1875.84C706.381 1866.89 721.33 1869.65 729.588 1872.26C757.905 1881.19 779.498 1918.32 778.539 1947.28C776.632 2005.11 721.879 2041.86 669.981 2051.7C517.831 2080.54 338.59 1965.79 390.535 1795.57C428.912 1669.81 604.678 1570.46 702.51 1488.7C767.356 1434.52 807.979 1383.92 854.567 1314.37C861.375 1304.2 866.358 1302.88 878.475 1302.01C908.185 1299.89 927.613 1304.85 953.392 1318.43C981.839 1333.39 1015.68 1359.88 1012.46 1395.65C1014.71 1396.09 1016.04 1393.97 1016.6 1392.2C1017.89 1388.17 1017.51 1373.07 1017.01 1368.28C1013.47 1334.85 973.183 1308.28 944.456 1296.94C921.215 1287.77 894.3 1283.5 869.761 1289.17C869.398 1287.34 869.96 1286.48 870.884 1285.04C878.346 1273.39 898.886 1238.92 907.799 1231.88C926.712 1216.96 977.148 1218.53 999.828 1224C1000.59 1224.19 1017.21 1231.4 1012.45 1226.03C1000.31 1219.96 989.243 1212 977.207 1205.68C923.262 1177.38 863.258 1168.7 807.932 1143.34C787.358 1133.91 767.145 1122.83 752.174 1105.52L750.478 1105.49C740.77 1121.8 720.757 1126.43 703.177 1120.61C666.636 1108.54 650.109 1059.97 677.327 1030.58C680.661 1026.97 695.235 1017.73 699.574 1017.73H717.704L703.936 959.545C703.445 957.029 703.879 954.42 703.399 951.893C698.077 923.882 693.024 895.732 689.655 867.358C687.14 846.158 688.24 817.527 681.994 797.789C681.433 795.999 680.707 791.085 677.935 791.903C677.187 797.707 678.953 805.745 677.935 811.209L677.888 811.232C677.807 811.677 674.297 818.638 673.911 818.942C665.314 825.682 649.36 806.845 645.863 799.977C637.219 783.035 636.26 755.61 649.793 740.996C663.326 726.383 675.409 736.737 681.397 751.573C685.982 751.211 682.614 744.425 682.532 741.066C680.672 670.011 682.964 564.931 711.785 499.948C734.231 449.321 779.229 402.754 827.618 376.534L827.033 374.205C824.319 373.831 817.547 375.961 814.576 376.955C809.991 378.488 795.849 386.982 794.212 387.122C788.539 387.613 783.837 372.404 783.275 367.689C780.059 340.509 797.885 308.45 820.471 293.93ZM1743.61 1341.44C1766.73 1330.94 1791.8 1324.98 1817.03 1330.83C1867.29 1390.14 1922.37 1443.96 1987.74 1486.5C2063 1535.46 2156 1570.75 2211.78 1643.82C2286.8 1742.09 2262.24 1877.5 2152.28 1936.28C2094.12 1967.37 2003.02 1981.41 1939.74 1960.41C1924.83 1955.46 1909.35 1941.6 1934.79 1937.52C1975 1931.06 2006.04 1927.48 2042.7 1906.23C2074.29 1887.93 2109.54 1852.14 2109.54 1813.37L2109.57 1813.34C2090.45 1817.43 2072.08 1800.86 2067.78 1783.19C2065.27 1772.82 2067.77 1763.05 2068.1 1752.53C2066.03 1749.04 2062.1 1750.82 2059.01 1749.85C2044.99 1745.4 2025.82 1727.99 2023.29 1713.04C2022.68 1709.47 2023.95 1699.45 2021.91 1698.04C1993.27 1699.49 1962.14 1684.53 1958.75 1653.58C1935.36 1654.74 1904.09 1643.5 1895.01 1620.22C1893.75 1616.98 1894.91 1612.91 1892 1610.36C1861.94 1611.29 1834.7 1596.12 1830.08 1564.66C1802.03 1564.14 1774.6 1543.32 1769.77 1515C1751.77 1510.3 1739.11 1495.82 1728.43 1481.48C1716.05 1464.84 1699.3 1441.38 1689.21 1423.6C1686.56 1418.95 1678.61 1404.12 1679.01 1399.77C1679.18 1397.88 1683.77 1386.57 1684.9 1384.51C1693.38 1369.22 1727.44 1348.78 1743.61 1341.44ZM1758.69 1913.38C1756.68 1912.35 1754.63 1912.69 1752.53 1913.05L1752.52 1913.07C1742.83 1914.74 1730.92 1933.69 1733.24 1942.35C1735.8 1951.96 1746.22 1945.55 1751.56 1941.37C1758.64 1935.85 1766.89 1920.74 1758.69 1913.38ZM546.557 1904.36C545.306 1898.16 536.639 1883.84 529.012 1886.1C513.725 1890.61 531.996 1927.15 543.727 1924.33C548.371 1923.22 547.329 1908.22 546.557 1904.36ZM691.304 1250.53C716.827 1241.31 749.718 1253.73 772.082 1266.96C788.364 1276.59 821.208 1303.15 815.652 1324.6C787.077 1368.7 752.758 1416.71 711.223 1449.47C696.252 1461.27 677.771 1478.94 661.372 1487.35C655.629 1490.3 647.804 1490.96 644.026 1493.4C640.529 1495.67 633.405 1507.52 629.417 1511.55C619.264 1521.8 603.988 1530.74 589.508 1532.47C584.911 1533.02 577.623 1531.51 573.834 1533.17C571.26 1534.31 566.769 1548.32 564.02 1552.61C554.148 1568.01 530.708 1581.38 512.333 1581.73C508.695 1581.8 492.438 1577.79 490.823 1579.43C482.015 1610.73 444.317 1629.62 413.11 1620.4L411.414 1622.27C409.636 1635.1 394.956 1653.91 383.751 1660.12C375.715 1664.57 360.042 1669.39 350.989 1669.54C346.544 1669.61 342.8 1667.67 338.613 1668.79C336.496 1670.3 337.83 1680.66 337.503 1684.06C335.596 1703.61 317.033 1720.9 298.061 1724.17C294.927 1724.7 285.639 1723.41 284.89 1726.25C289.382 1739.32 288.388 1756.18 281.405 1768.36C278.457 1773.49 273.427 1776.08 270.807 1781.21C270.796 1783.95 275.323 1785.45 277.218 1787.7C288.961 1801.66 289.99 1820.11 280.937 1835.75C277.955 1840.91 273.977 1846.6 267.334 1846.14C267.334 1847.05 267.217 1847.99 267.521 1848.88C268.048 1850.42 280.96 1860.66 283.335 1862.31C294.061 1869.79 308.307 1877.12 320.156 1882.81C326.694 1885.95 353.55 1893.68 352.79 1901.64C352.252 1904.17 349.281 1906.6 347.082 1907.74C332.976 1915.07 305.699 1914.62 290.142 1913.99C150.484 1908.39 56.8748 1769.46 128.903 1641.53C191.937 1529.56 339.865 1484.88 449.65 1433.52C543.002 1389.84 629.02 1334.17 691.304 1250.53ZM1779.04 1864.92C1777.56 1859.65 1769.99 1851.79 1764.22 1853.37H1764.23C1762.87 1853.75 1757.2 1857.82 1755.76 1859.01C1732.91 1878.08 1744.23 1926.3 1770.24 1901.58C1778.88 1893.39 1782.19 1876.15 1779.04 1864.92ZM848.239 1849.72C857.011 1846.88 865.293 1866.83 865.106 1873.67C864.545 1893.3 838.18 1852.99 848.239 1849.72ZM528.767 1878.73C552.348 1878.63 559.634 1818.31 527.866 1824.17C506.929 1828.03 505.865 1878.81 528.767 1878.73ZM1769.17 1794.09C1764.08 1787.73 1760.93 1786.31 1752.51 1787.91V1787.9C1735.98 1791.03 1733.56 1811.78 1735.25 1825.68C1736.42 1835.34 1745.55 1846.56 1755.76 1846.19C1781.24 1845.26 1781.42 1809.4 1769.17 1794.09ZM275.966 1822.55C279.451 1806.99 271.79 1781.56 251.871 1784.41H251.859C231.858 1787.28 233.507 1817.98 242.97 1831.29C245.064 1834.24 255.438 1843.77 258.561 1843.74C265.72 1843.7 274.538 1828.91 275.966 1822.55ZM802.716 1822.93C808.681 1821.16 835.127 1828.26 832.203 1837.2C831.325 1839.9 822.564 1839.44 819.968 1839.12C814.926 1838.5 797.873 1832.38 799.698 1825.88C800.236 1824.52 801.289 1823.34 802.716 1822.92V1822.93ZM257.648 1798.31C261.075 1797.36 262.397 1799.55 264.432 1801.65C271.404 1808.86 274.527 1825.89 266.608 1833.18C261.941 1834.59 255.181 1821.14 254.56 1817.38C253.94 1813.63 253.204 1799.55 257.66 1798.31H257.648ZM579.554 1774.23C575.905 1765.23 565.459 1759.98 555.962 1762.18L555.973 1762.19C534.674 1767.14 517.538 1812.59 543.06 1817.77C566.886 1822.61 588.421 1796.09 579.554 1774.23ZM2122.43 1751.93C2118.15 1746.3 2108.32 1739.84 2101.11 1741.04C2090.37 1742.82 2080.87 1756.15 2081.74 1766.8C2083.37 1787.09 2099.68 1809.23 2121.9 1798.19C2137.16 1790.62 2130.94 1763.13 2122.43 1751.93ZM1748.97 1738.22C1744.01 1727.81 1729.41 1716.42 1717.37 1719.99H1717.39C1709.76 1722.25 1705.95 1737.96 1705.94 1744.9C1705.94 1763.76 1724.04 1791.4 1745.72 1779.92C1758.1 1773.37 1754.04 1748.87 1748.97 1738.22ZM252.9 1715.46C217.752 1716.44 213.763 1780.89 253.836 1773.52C272.469 1770.09 279.44 1714.72 252.9 1715.46ZM631.054 1716.9C628.972 1705.59 611.744 1704.32 602.737 1706.01L602.725 1706C593.719 1707.68 582.069 1718.88 578.022 1726.92C562.887 1756.89 591.064 1774.76 616.305 1757.02C628.984 1748.1 633.827 1731.92 631.054 1716.9ZM2101.41 1720.4C2101.19 1699.75 2075.85 1677.95 2055.42 1682.56H2055.43C2045.59 1684.78 2041.9 1700.87 2043.21 1709.51C2044.74 1719.54 2062.4 1736.02 2071.87 1738.16C2085.71 1741.29 2101.59 1736.76 2101.41 1720.4ZM1704.72 1716.69C1726.11 1701.97 1698.76 1651.72 1668.28 1658.02V1658.01C1663.78 1658.94 1656.63 1665.55 1655.79 1670.09C1651.77 1691.76 1681.86 1732.41 1704.72 1716.69ZM701.071 1674.39C702.826 1659.71 686.941 1650.83 674.122 1652.17H674.11C661.501 1653.51 643.992 1662.67 636.447 1673.02C627.569 1685.2 627.862 1707.14 645.804 1710.33C668.087 1714.27 698.217 1698.14 701.071 1674.39ZM296.003 1702.22C322.449 1685.18 323.08 1645.21 285.744 1652.17C276.843 1653.84 264.796 1664.59 260.316 1672.37C242.186 1703.82 269.346 1719.39 296.003 1702.22ZM2048.79 1659.45C2046.13 1639.49 2017.24 1627.77 1999.31 1631.11C1978.85 1634.94 1976.67 1657.91 1989.65 1671.81C2006.68 1690.05 2053.42 1694.27 2048.79 1659.45ZM1654.18 1620.1C1647.63 1608.74 1626.74 1595.32 1613.36 1598.39C1609.23 1599.34 1604.34 1603.65 1602.64 1607.55C1592.09 1631.66 1625.91 1669.32 1650.55 1657.81C1664.46 1651.32 1660.36 1630.85 1654.18 1620.1ZM775.006 1620.83C775.918 1605.35 761.298 1599.08 747.8 1600.71L747.788 1600.72C734.5 1602.32 718.721 1611.66 711.808 1623.22C702.381 1638.98 707.563 1657.6 727.67 1657.78C746.911 1657.95 773.754 1641.95 775.006 1620.83ZM371.996 1639C392.465 1622.55 390.699 1595.58 360.685 1597.24C345.725 1598.07 326.251 1607.4 318.355 1620.44C309.875 1634.44 312.015 1652.58 331.151 1653.1C344.544 1653.46 361.551 1647.39 371.996 1639ZM1972.74 1602.14C1960.62 1591.63 1944.98 1588.14 1929.19 1590.21C1922.19 1591.12 1914.53 1595.97 1913.12 1603.38C1909.47 1622.6 1935.76 1638.65 1952.38 1640.08C1978.36 1642.31 1994.89 1621.39 1972.74 1602.14ZM833.373 1604.41C855.643 1588.07 858.462 1551.37 823.851 1555.12L823.84 1555.11C803.335 1557.33 776.269 1576.39 783.287 1599.71C789.428 1620.14 819.968 1614.25 833.373 1604.41ZM455.885 1553.96C450.785 1552.14 444.375 1552.23 439.03 1552.79H439.042C420.339 1554.76 385.225 1572.19 395.542 1595.62C402.303 1610.95 435.731 1605.12 447.638 1598.83C454.2 1595.38 465.967 1583.79 467.277 1576.36C469.219 1565.38 466.774 1557.86 455.885 1553.96ZM1601.86 1563.63C1596.75 1550.65 1577 1532.88 1562.22 1537.86C1559.56 1538.76 1553.6 1544.4 1552.87 1547.24C1549.37 1560.71 1555.18 1578.5 1564.92 1588.29C1586.97 1610.45 1613.21 1592.43 1601.86 1563.63ZM1878.27 1544.52C1874.39 1543.85 1862.54 1543.62 1858.96 1544.52V1544.53C1852.32 1546.22 1847.31 1558.44 1847.5 1564.68C1847.71 1571.31 1855.1 1582.98 1860.38 1586.99C1873.68 1597.11 1908.79 1602.81 1912.78 1580.81C1915.61 1565.23 1892.16 1546.91 1878.27 1544.52ZM545.704 1548.31C560.032 1530.57 554.908 1513 530.322 1514.15H530.31C512.637 1514.97 479.419 1529.14 481.348 1550.69C481.723 1554.89 486.612 1562.2 490.109 1564.2C494.18 1566.53 511.759 1565.98 516.801 1565.03C525.538 1563.4 540.136 1555.2 545.704 1548.31ZM910.699 1515.55C906.383 1508.34 898.137 1507.47 890.522 1508.32H890.511C873.738 1510.19 855.842 1527.16 853.573 1543.98C851.397 1560.09 870.837 1566.15 884.019 1562.66C900.886 1558.18 920.922 1532.63 910.699 1515.55ZM1810.15 1495.68C1806.56 1494.86 1795.51 1494.41 1792.26 1495.36H1792.24C1787.25 1496.81 1784.13 1507.35 1784.29 1512.1C1784.8 1526.65 1801.99 1544.98 1815.74 1548.59C1821.68 1550.16 1836.21 1550.44 1840.62 1546.08C1857.37 1529.46 1827.03 1499.56 1810.15 1495.68ZM1556.17 1507.54C1554.49 1492.08 1538.2 1469.9 1520.93 1474.33C1499.28 1479.88 1513.71 1535.03 1539.34 1536.13C1556.35 1536.87 1557.61 1520.77 1556.17 1507.54ZM626.387 1481.69C624.808 1473.23 604.656 1473.09 598.047 1474.33C583.812 1477.01 552.967 1506.74 571.015 1518.36C584.537 1527.06 611.509 1512.75 620.551 1501.52C625.604 1495.24 627.967 1490.15 626.387 1481.69ZM968.037 1460.53C966.727 1450.49 952.246 1449.36 944.327 1450.97V1450.98C929.215 1454.03 914.734 1476.59 914.266 1491.12C914.021 1498.9 920.174 1509.37 928.724 1509.19C952.129 1508.67 970.984 1483.06 968.037 1460.53ZM1785.12 1480.68C1784.83 1462.56 1759.39 1437.35 1740.8 1441.54L1740.79 1441.52C1738.43 1442.05 1734.78 1445.16 1733.62 1447.23C1725.61 1461.47 1746.22 1489.4 1759.65 1494.72C1773.04 1500.02 1785.39 1497.09 1785.12 1480.68ZM687.07 1437.46C685.994 1433.46 679.444 1430.36 675.268 1430.99V1430.98C664.928 1432.55 644.213 1456.09 643.909 1466.49C643.815 1469.66 645.699 1474.44 648.658 1475.78C660.016 1480.91 680.801 1459.48 684.52 1449.69C685.199 1447.89 687.456 1438.9 687.07 1437.46ZM1519.78 1454.48C1522.31 1441.28 1512.46 1409.69 1495.22 1412.27V1412.26C1475.02 1415.29 1482.09 1451.25 1491.02 1462.74C1496.83 1470.21 1502.88 1473.45 1511.79 1468.71C1514.34 1467.36 1519.21 1457.44 1519.78 1454.48ZM1009.81 1394.17C1006.58 1387.4 999.056 1385.98 992.225 1387.75C979.359 1391.08 967.557 1417.37 968.446 1429.6C969.709 1446.8 984.342 1447.51 995.442 1437.78C1003.9 1430.36 1014.72 1404.53 1009.81 1394.17ZM1727.58 1436.5C1735.68 1421.97 1714.47 1386.78 1698.72 1391.17L1698.7 1391.18C1689.54 1393.74 1696.26 1412.61 1698.99 1418.51C1702.72 1426.61 1719.4 1451.2 1727.58 1436.5ZM740.699 1390.15C735.4 1383.82 722.674 1390.78 717.282 1394.69C711.083 1399.17 699.948 1413.98 698.287 1421.32C697.141 1426.34 696.743 1438.08 704.077 1437.77C710.253 1437.5 726.558 1425.82 730.5 1420.79C734.442 1415.76 745.144 1395.47 740.699 1390.16V1390.15ZM1636.44 1263.47C1668.42 1256.67 1705.41 1242.6 1738.25 1243.5C1765.22 1244.23 1770.11 1263.06 1783.24 1281.56C1789.54 1290.45 1800.08 1302.31 1805.24 1311.03C1806.01 1312.34 1806.96 1313.2 1806.62 1314.92V1314.93H1786.15C1769.93 1314.93 1724.41 1333.65 1710.8 1343.69C1695.56 1354.94 1678.97 1376.56 1676.19 1395.67C1674.25 1395.96 1673.91 1394.14 1673.08 1392.93C1648.91 1358.05 1632.75 1311.73 1610.13 1275.72C1608.03 1272.4 1597.76 1260.32 1597.41 1259.09C1596.37 1255.42 1602.6 1249.73 1605.58 1247.78C1616.76 1240.44 1631.78 1245.88 1639.27 1255.99L1634.69 1261.7L1636.44 1263.47ZM255.683 508.232C318.939 428.81 473.347 450.924 530.31 527.14C604.666 626.615 591.098 757.481 531.702 860.385C482.962 944.825 376.908 1036.89 442.784 1141.19C488.775 1214 583.215 1241.17 664.097 1216.29C674.987 1212.95 686.275 1205.04 695.737 1202.29C697.538 1201.76 697.327 1201.07 698.929 1203.2C665.641 1248.62 626.924 1291.89 581.881 1325.95C557.458 1344.42 494.355 1387 464.622 1386.22C452.539 1385.9 438.363 1377.35 428.339 1371.21C404.279 1390.77 371.13 1383.64 351.888 1360.73C345.292 1361.46 339.046 1363.95 332.32 1364.13C314.892 1364.58 283.51 1351.07 280.282 1331.82C279.007 1324.23 282.001 1315.83 281.486 1309.66C280.808 1301.52 276.421 1308.23 273.099 1309.57C242.969 1321.74 200.674 1278.15 210.71 1248.33C212.745 1242.27 222.055 1235.39 219.95 1230.73C215.973 1221.93 209.224 1225.68 201.551 1224.53C187.211 1222.38 172.777 1204.04 168.519 1190.88C161.443 1168.99 166.04 1149.16 186.602 1137.67C163.42 1120.26 151.91 1101.23 158.846 1071.27C164.8 1045.56 179.48 1044.57 199.399 1035.78C200.92 1035.12 205.434 1030.72 206.499 1031.78H206.511C205.189 1038.54 203.189 1044.28 205.317 1051.13C205.832 1052.78 204.616 1053.19 207.669 1052.84C210.078 1046.08 210.85 1038.64 212.99 1031.83C222.511 1001.61 245.671 963.956 264.514 938.285C265.696 936.682 270.923 932.588 269.684 931.184C263.93 931.605 261.45 923.544 261.391 918.898C261.181 900.985 282.059 879.773 300.751 886.641C301.675 890.361 302.307 895.287 298.927 897.92C297.043 898.868 295.16 896.212 292.505 895.954C284.001 895.112 272.2 907.057 271.966 915.423C271.825 920.36 275.159 926.749 280.141 922.326C296.938 903.547 314.857 886.137 333.993 869.722V868.014C327.7 867.604 328.706 857.273 329.618 852.476C331.033 844.987 341.643 832.971 348.965 830.877C355.059 829.145 372.101 827.613 366.603 837.991C362.393 845.935 361.457 838.482 356.93 838.716C354.802 838.821 348.38 843.537 346.894 845.187C341.9 850.732 342.087 857.741 338.719 863.919C336.789 870.038 347.351 858.618 348.041 858.033C411.483 804.166 474.143 735.544 470.927 646.225C469.979 620.04 463.686 597.118 449.837 574.888C442.012 562.334 436.573 559.9 425.824 550.938C396.138 526.203 372.428 517.989 332.285 520.505C298.985 522.588 288.2 536.605 261.45 546.761C230.98 558.321 245.917 520.493 255.683 508.232ZM787.556 1345.58C791.253 1329.82 770.28 1344.97 766.034 1349.27C760.244 1355.12 741.425 1381.62 761.251 1377.83C772.655 1375.64 785.065 1356.21 787.556 1345.58ZM412.267 1353.07C402.559 1348.11 376.78 1344.99 367.27 1349.93C360.615 1353.4 367.294 1361.48 371.411 1364.69C385.117 1375.36 408.432 1371.87 422.761 1363.92C424.38 1361 414.874 1354.4 412.267 1353.07ZM317.372 1319.28C314.144 1318.17 303.629 1315.58 300.938 1316.26L300.95 1316.27C291.721 1318.62 299.067 1329.94 302.459 1334.21C312.108 1346.37 329.793 1352.3 345.046 1349.95C348.835 1349.36 351.046 1347.75 350.415 1343.65C349.374 1336.9 324.18 1321.62 317.372 1319.28ZM249.846 1244.08C243.121 1239.18 237.483 1237.66 232.255 1245.3C223.447 1258.18 243.344 1289.35 256.9 1293.19C265.555 1295.63 269.849 1293.61 276.118 1288.04C279.568 1297.75 292.06 1306.23 301.09 1311C302.692 1311.84 303.745 1313.1 305.932 1312.58C306.377 1310.47 304.797 1309.76 303.628 1308.46C298.025 1302.28 289.44 1296.7 283.72 1289.76C271.977 1275.52 265.415 1255.44 249.846 1244.08ZM767.367 1159.31C782.713 1159.34 842.144 1176.58 855.549 1184.6C857.841 1185.97 858.801 1188.95 861.503 1188.55C868.053 1172.95 896.019 1179.37 907.003 1186.94C917.986 1194.51 904.137 1196.93 897.762 1202.01C883.481 1213.39 857.057 1259.57 845.571 1277.34C838.366 1288.49 831.43 1300.03 824.658 1311.44L821.721 1310.62C816.832 1284.41 794.644 1263.03 772.456 1250.14C761.215 1243.61 737.892 1233.01 725.248 1233.01H703.623L704.72 1228.85C717.329 1212.73 726.662 1194.13 739.4 1178.13C747.33 1168.17 753.39 1159.28 767.367 1159.31ZM211.984 1167.29C207.914 1156.52 195.551 1140.09 185.457 1155.21C179.527 1164.08 185.246 1182.8 190.136 1191.49C194.721 1199.66 203.306 1210.17 213.891 1207.04C216.055 1206.4 216.663 1203.26 219.377 1203.78C213.973 1218.46 226.804 1232.73 240.43 1235.35C242.138 1233.72 231.308 1219.88 229.904 1217.23C220.781 1199.97 218.511 1184.61 211.984 1167.29ZM703.62 1233.03L703.609 1233.01H703.623L703.62 1233.03ZM206.534 1065.07C206.826 1056.76 203.001 1048.17 193.351 1050.77V1050.78C180.205 1054.33 173.55 1083.68 175.035 1095.44C175.9 1102.3 184.299 1120.67 192.556 1114.33C194.276 1113.01 199.738 1105.88 200.732 1103.79C203.563 1097.79 206.277 1072.65 206.534 1065.07ZM191.398 1005.35C188.533 982.009 210.405 950.535 235.389 951.447H235.401C238.068 951.541 244.653 954.677 245.741 956.9C247.612 960.691 243.203 968.6 239.589 969.595C233.963 971.139 235.916 963.066 225.576 969.536C215.236 976.006 203.574 996.272 206.791 1008.67C207.528 1011.49 211.446 1014.02 212.113 1016.23C213.716 1021.54 209.411 1031.21 202.662 1029.22C197.621 1027.73 192.006 1010.29 191.398 1005.35ZM435.135 624.66C433.521 614.832 437.146 590.087 451.322 594.427C459.124 596.814 449.358 601.693 448.668 605.32C446.574 616.365 450.831 632.64 465.019 629.271V629.282C467.557 662.195 438.854 647.265 435.135 624.66ZM1894.36 512.291C1922.29 515.123 1950 541.94 1951.65 570.208C1952.34 582.119 1948.45 605.987 1935.91 610.608C1926.71 614.001 1930.28 606.911 1929.31 600.757C1926.18 580.96 1918.53 557.7 1909.6 539.74C1904.92 530.333 1898.19 522.002 1894.36 512.291ZM409.8 543.017C418.349 542.783 408.409 547.216 407.858 549.357C406.443 554.915 417.788 564.673 422.631 565.785C428.385 567.096 439.521 561.69 438.14 571.308C437.45 576.128 429.859 577.836 425.812 577.801C406.875 577.637 379.213 543.859 409.788 543.017H409.8ZM346.532 526.565C352.358 524.834 383.458 524.659 379.493 536.113C377.867 540.828 357.608 540.056 352.941 538.395C348.274 536.733 337.959 529.116 346.532 526.565ZM694.111 448.361C702.357 443.213 717.049 436.252 725.833 441.505C704.194 467.304 687.375 499.807 682.579 533.363L682.567 533.352C677.783 534.732 676.087 529.959 673.958 526.168C659.618 500.627 669.361 463.794 694.111 448.361Z" fill="currentColor"/>
</svg>
